# xmcd
#
# Track frame offsets:
#	150
#	15193
#	30264
#	44700
#	62204
#	75041
#	87494
#	102457
#	114991
#	128038
#	145575
#	163102
#	183952
#	196235
#	208212
#	223575
#	239036
#	257559
#	272957
#	288224
#	298890
#	313267
#
# Disc length: 4336 seconds
#
# Revision: 1
# Processed by: cddbd v1.5.1PL2 Copyright (c) Steve Scherf et al.
# Submitted via: audiograbber 1.83.01
#
DISCID=4410ee16
DTITLE=Белый день - Китайцы
DYEAR=2005
DGENRE=Folklore
TTITLE0=Китайцы
TTITLE1=Весело живем!
TTITLE2=Дарья
TTITLE3=Трактористка
TTITLE4=Ромашка
TTITLE5=До свидания, дорогой
TTITLE6=Цветики полевые
TTITLE7=Валенки
TTITLE8=Ехал цыган
TTITLE9=Светочка
TTITLE10=Ай-яй-яй
TTITLE11=Милый мой дедочек
TTITLE12=Володенька
TTITLE13=За семью морями
TTITLE14=Так бывает
TTITLE15=Целый год
TTITLE16=Вай-вай
TTITLE17=Речка
TTITLE18=Чужая жена
TTITLE19=Соловушка
TTITLE20=Однажды морем я плыла
TTITLE21=Ах, мамочка
EXTD=
EXTT0=
EXTT1=
EXTT2=
EXTT3=
EXTT4=
EXTT5=
EXTT6=
EXTT7=
EXTT8=
EXTT9=
EXTT10=
EXTT11=
EXTT12=
EXTT13=
EXTT14=
EXTT15=
EXTT16=
EXTT17=
EXTT18=
EXTT19=
EXTT20=
EXTT21=
PLAYORDER=
